<?xml version="1.0" standalone="no"?>
<!DOCTYPE svg PUBLIC "-//W3C//DTD SVG 20010904//EN"
 "http://www.w3.org/TR/2001/REC-SVG-20010904/DTD/svg10.dtd">
<svg version="1.0" xmlns="http://www.w3.org/2000/svg"
 width="334.000000pt" height="334.000000pt" viewBox="0 0 334.000000 334.000000"
 preserveAspectRatio="xMidYMid meet">
<metadata>
Created by potrace 1.11, written by Peter Selinger 2001-2013
</metadata>
<g transform="translate(0.000000,334.000000) scale(0.100000,-0.100000)"
fill="#000000" stroke="none">
<path d="M1047 3123 c-2 -5 -5 -28 -6 -53 -4 -65 -27 -146 -60 -215 -74 -149
-200 -235 -372 -252 -35 -3 -67 -11 -71 -17 -12 -19 -21 -116 -21 -231 -1
-160 11 -269 49 -450 62 -294 202 -627 388 -927 88 -141 268 -383 371 -497 16
-18 41 -45 53 -60 69 -76 278 -281 288 -281 12 0 237 225 329 330 423 481 718
1059 791 1550 3 19 7 46 10 60 24 138 22 466 -4 506 -4 6 -34 14 -67 17 -109
11 -202 49 -269 108 -84 73 -160 236 -169 360 l-3 54 -617 3 c-338 1 -617 -1
-620 -5z m1004 -276 c1 -6 1 -15 1 -18 -1 -4 7 -30 18 -59 52 -144 155 -252
310 -326 52 -25 102 -49 110 -54 12 -6 15 -29 15 -116 -1 -97 -11 -219 -20
-234 -2 -3 -6 -23 -9 -44 -13 -83 -57 -236 -110 -381 -52 -144 -141 -323 -243
-487 -56 -91 -232 -330 -293 -397 -120 -133 -156 -171 -166 -171 -16 0 -154
147 -245 260 -195 243 -346 500 -453 774 -48 120 -112 339 -121 409 -3 22 -7
42 -9 46 -9 15 -20 143 -21 235 0 78 3 100 15 106 8 4 60 29 115 56 169 82
299 232 321 372 l6 42 389 0 c299 -1 389 -3 390 -13z"/>
<path d="M1627 2664 c-1 -2 -27 -6 -57 -9 -257 -29 -488 -245 -545 -506 -13
-62 -13 -222 -1 -282 20 -89 89 -220 156 -294 144 -158 352 -236 565 -210 259
32 488 233 551 485 87 350 -129 710 -476 795 -58 15 -185 28 -193 21z m17 -96
c-2 -56 -3 -60 -12 -55 -28 18 -202 -44 -271 -97 -19 -14 -38 -26 -42 -26 -4
0 -21 13 -38 29 l-31 29 42 35 c93 74 216 124 313 126 l41 1 -2 -42z m217 11
c66 -22 200 -103 207 -126 3 -12 -47 -63 -63 -63 -6 0 -21 20 -33 45 -22 46
-44 61 -37 25 4 -20 3 -20 -33 -1 -54 27 -135 52 -176 54 -20 1 -37 4 -37 7
-1 3 -2 25 -3 49 l-2 43 56 -5 c30 -3 85 -15 121 -28z m-119 -114 c14 15 197
-67 199 -89 0 -6 2 -21 5 -33 6 -34 -7 -34 -72 -4 -55 27 -103 43 -165 55 -22
5 -25 10 -23 43 1 21 2 39 3 40 1 1 12 -2 25 -7 13 -5 26 -7 28 -5z m-97 -32
c0 -28 -5 -37 -20 -39 -80 -12 -140 -35 -201 -80 -21 -14 -24 -13 -48 11 -21
21 -24 29 -13 39 47 47 183 105 248 106 34 0 35 -1 34 -37z m-401 -141 c-47
-70 -71 -134 -81 -214 l-6 -48 -48 0 -49 0 4 38 c11 111 64 242 127 315 l32
38 33 -32 32 -31 -44 -66z m945 12 c33 -56 68 -165 75 -231 l5 -43 -50 0 c-44
0 -49 2 -50 23 -1 45 -25 130 -50 179 -19 38 -19 38 1 38 32 0 23 13 -30 43
-28 16 -50 31 -50 35 0 3 15 21 32 39 l33 34 27 -33 c15 -18 41 -56 57 -84z
m-548 38 c5 -38 4 -62 -3 -63 -42 -7 -82 -21 -117 -44 -36 -22 -39 -22 -53 -6
-28 33 -28 40 2 61 50 36 168 71 171 52z m125 -9 c27 -9 66 -28 87 -41 l38
-25 -22 -24 c-20 -21 -24 -21 -39 -8 -9 8 -24 15 -34 15 -9 0 -26 5 -36 10
-10 6 -30 11 -44 12 -15 1 -27 5 -27 8 -5 19 -6 56 -2 63 6 11 24 9 79 -10z
m-419 -35 c29 -27 29 -32 -2 -73 -29 -37 -65 -132 -65 -170 0 -23 -4 -25 -41
-25 l-41 0 7 47 c10 66 38 138 77 195 18 26 35 48 37 48 3 0 15 -10 28 -22z
m708 -42 c32 -51 71 -162 70 -201 0 -17 -7 -20 -40 -20 -32 0 -39 3 -37 17 1
9 -7 45 -19 80 -12 37 -17 64 -11 66 6 2 -6 18 -26 37 -35 32 -36 34 -19 52
27 31 47 23 82 -31z m-308 -26 c7 0 4 -15 -9 -41 -10 -22 -20 -54 -20 -70 -1
-16 -9 -36 -18 -44 -17 -15 -18 -11 -15 72 1 48 3 90 4 92 0 2 11 1 24 -3 12
-3 27 -6 34 -6z m-312 -20 l22 -20 -29 -57 c-15 -31 -28 -66 -28 -79 0 -21 -5
-24 -40 -24 -22 0 -40 1 -40 3 2 45 69 197 87 197 4 0 16 -9 28 -20z m502 3
c35 -45 80 -183 59 -183 -10 0 -68 68 -97 114 l-27 41 21 23 c25 27 26 27 44
5z m-394 -24 c-4 -13 -9 -17 -15 -11 -11 11 -3 32 12 32 4 0 6 -9 3 -21z m-30
-79 c-3 -10 0 -27 6 -37 10 -17 10 -17 12 2 1 11 1 24 0 29 -1 5 5 4 13 -4 9
-7 16 -19 16 -28 0 -8 6 -23 14 -31 13 -14 7 -16 -65 -13 -77 3 -80 4 -74 25
4 12 9 31 12 42 3 11 13 30 21 43 14 21 16 21 32 7 10 -9 16 -24 13 -35z m107
28 c19 -4 30 -19 23 -31 -2 -4 -11 -3 -18 3 -8 7 -19 9 -25 5 -5 -3 -17 0 -25
9 -27 26 -18 29 45 14z m-455 -205 c9 -74 37 -144 85 -214 l39 -57 -31 -31
c-37 -37 -43 -34 -99 53 -55 83 -81 158 -95 264 l-5 42 49 0 50 0 7 -57z m120
10 c4 -27 11 -56 17 -66 7 -15 5 -24 -12 -42 l-21 -22 36 -32 c20 -17 43 -31
52 -31 13 0 12 -5 -7 -25 -13 -14 -26 -25 -29 -25 -12 1 -73 100 -91 147 -10
26 -21 69 -24 96 l-7 47 40 0 c39 0 39 0 46 -47z m115 26 c0 -11 -4 -18 -9
-15 -4 3 -17 -1 -27 -9 -26 -20 -31 -19 -36 10 -6 31 -2 35 39 35 27 0 33 -4
33 -21z m210 17 c0 -5 -122 -126 -127 -126 -9 0 -54 110 -48 120 6 9 175 15
175 6z m387 -34 c-7 -44 -15 -67 -38 -106 l-18 -29 -19 32 c-18 29 -18 35 -5
74 19 54 30 67 60 67 23 0 24 -3 20 -38z m126 1 c-2 -21 -14 -66 -26 -101 -17
-50 -25 -62 -38 -59 -13 3 -21 -4 -28 -23 -5 -16 -7 -31 -4 -33 3 -3 2 -11 -2
-17 -5 -8 -14 3 -25 26 -17 38 -17 40 7 87 13 26 29 73 35 103 11 54 11 54 48
54 38 0 38 0 33 -37z m139 -13 c-5 -68 -48 -187 -93 -257 -57 -87 -61 -89 -98
-54 -17 16 -31 32 -31 37 0 13 80 84 95 84 20 0 19 17 0 28 -14 7 -14 12 -1
43 8 20 20 66 27 103 l13 67 45 -3 46 -3 -3 -45z m-617 -75 c0 -50 -4 -85 -10
-85 -22 0 -81 21 -100 35 -18 15 -17 18 40 75 33 33 62 60 65 60 3 0 5 -38 5
-85z m63 55 c3 -17 6 -20 12 -9 7 11 10 11 15 -3 5 -14 -32 -68 -47 -68 -3 0
-5 25 -5 55 1 55 18 73 25 25z m-152 -155 c16 -8 38 -15 49 -15 11 0 25 -4 30
-8 11 -8 13 -57 3 -67 -11 -11 -117 24 -160 53 l-40 26 21 17 c23 19 53 17 97
-6z m-72 -95 c36 -21 88 -38 131 -43 27 -3 30 -7 29 -38 l0 -34 -53 2 c-58 3
-123 28 -193 76 l-47 32 26 27 c26 27 28 27 51 12 14 -9 39 -25 56 -34z m253
25 c29 -2 42 -15 17 -16 -10 0 -30 -3 -44 -5 -20 -3 -26 0 -27 17 -2 16 2 19
15 13 9 -4 27 -8 39 -9z m208 -31 c14 -11 13 -14 -14 -33 -50 -36 -138 -70
-195 -77 l-55 -7 3 39 c1 31 6 39 21 40 27 1 127 32 145 44 19 13 74 9 95 -6z
m-577 -64 c63 -50 170 -90 252 -95 22 -1 24 -6 25 -44 1 -54 -7 -57 -96 -42
-77 14 -206 73 -259 119 l-35 30 29 31 c17 17 34 31 38 31 5 0 26 -13 46 -30z
m678 -1 l29 -31 -35 -29 c-74 -63 -238 -129 -321 -129 l-37 0 2 46 c2 46 3 47
36 51 87 9 226 67 260 108 18 22 33 19 66 -16z"/>
<path d="M1740 2545 c7 -8 16 -12 21 -9 13 8 1 24 -18 24 -13 0 -13 -3 -3 -15z"/>
<path d="M2790 683 c0 -12 16 -16 63 -16 15 0 17 -11 17 -108 0 -90 3 -109 15
-109 12 0 15 19 15 111 l0 111 28 -2 c43 -3 52 -1 52 13 0 9 -26 12 -95 12
-69 0 -95 -3 -95 -12z"/>
<path d="M3013 689 c-4 -4 -7 -60 -5 -123 3 -93 6 -116 18 -116 11 0 14 20 15
98 0 62 3 90 9 77 4 -11 21 -54 37 -95 16 -41 35 -75 42 -75 8 0 29 39 48 90
19 49 36 91 38 93 2 2 3 -38 3 -89 -1 -81 1 -94 15 -97 15 -3 17 10 17 116 0
91 -3 121 -13 125 -24 9 -34 -6 -67 -93 -18 -47 -35 -88 -39 -92 -3 -4 -22 35
-41 87 -33 90 -55 116 -77 94z"/>
</g>
</svg>
